<svg xmlns="http://www.w3.org/2000/svg" viewBox="0 0 64 64" role="img" aria-label="SM monogram">
  <defs>
    <linearGradient id="g" x1="0" x2="1" y1="0" y2="1">
      <stop offset="0%" stop-color="#60a5fa"/>
      <stop offset="100%" stop-color="#22d3ee"/>
    </linearGradient>
  </defs>
  <rect width="64" height="64" rx="16" fill="#0b1020"/>
  <path d="M18 20h15c7 0 11 3 11 8 0 4-2 6-5 7 4 1 7 4 7 9 0 6-5 10-13 10H18V20Zm12 14c4 0 6-1 6-4s-2-4-6-4h-5v8h5Zm2 14c4 0 7-2 7-5s-3-5-7-5h-7v10h7Z" fill="url(#g)"/>
</svg>
